<?xml version="1.0" standalone="no"?>
<!DOCTYPE svg PUBLIC "-//W3C//DTD SVG 20010904//EN"
 "http://www.w3.org/TR/2001/REC-SVG-20010904/DTD/svg10.dtd">
<svg version="1.0" xmlns="http://www.w3.org/2000/svg"
 width="576.000000pt" height="576.000000pt" viewBox="0 0 576.000000 576.000000"
 preserveAspectRatio="xMidYMid meet">
<metadata>
Created by potrace 1.14, written by Peter Selinger 2001-2017
</metadata>
<g transform="translate(0.000000,576.000000) scale(0.100000,-0.100000)"
fill="#000000" stroke="none">
<path d="M1737 5423 c-15 -8 -40 -33 -55 -55 -34 -52 -35 -106 -4 -203 12 -39
24 -79 26 -90 2 -11 11 -44 20 -72 38 -124 45 -149 50 -173 3 -14 9 -38 15
-55 25 -79 42 -132 46 -150 4 -21 14 -54 85 -305 22 -80 42 -153 45 -162 2 -9
9 -26 15 -37 6 -12 9 -21 6 -21 -3 0 0 -15 6 -32 5 -18 18 -62 28 -98 10 -36
26 -90 35 -120 9 -30 17 -62 20 -70 2 -8 8 -27 14 -42 6 -16 9 -28 7 -28 -2 0
3 -21 11 -47 8 -27 21 -70 28 -96 l13 -48 -56 1 c-31 0 -66 0 -77 -1 -28 0
-157 0 -175 0 -70 2 -102 1 -108 -3 -5 -3 -14 -1 -21 3 -7 5 -30 5 -52 1 -22
-4 -41 -4 -44 0 -2 4 -25 4 -50 0 -25 -4 -45 -4 -45 -1 0 3 -24 5 -52 4 -29
-1 -62 -3 -73 -3 -23 -1 -173 -2 -192 -1 -91 3 -65 -23 -307 300 -123 163
-236 305 -251 315 -16 10 -51 21 -79 23 -28 2 -56 6 -63 8 -7 2 -15 0 -18 -6
-4 -5 -11 -7 -16 -3 -11 6 -323 6 -356 0 -72 -15 -120 -82 -109 -152 3 -22 10
-55 17 -74 6 -19 15 -51 19 -70 5 -19 16 -60 25 -90 9 -30 25 -84 35 -120 10
-36 37 -130 60 -210 23 -80 50 -174 60 -210 10 -36 26 -90 35 -120 9 -30 20
-71 25 -90 4 -19 15 -59 24 -89 l15 -53 -70 -242 c-38 -132 -71 -248 -73 -256
-11 -43 -117 -416 -162 -572 -19 -65 -14 -113 18 -153 30 -38 73 -54 146 -52
34 1 62 0 62 -3 0 -3 26 -4 57 -2 32 1 74 2 93 2 19 -1 42 -1 50 -1 8 1 38 0
65 0 28 -1 58 -1 67 -1 38 1 92 38 133 91 24 31 51 64 60 74 8 9 15 19 15 21
0 8 224 301 232 304 4 2 8 8 8 13 0 5 23 39 51 75 49 62 54 65 90 63 21 -2 41
-1 44 2 3 3 24 3 48 0 23 -4 61 -4 85 -1 24 4 45 4 47 0 2 -3 31 -3 64 0 34 3
61 3 61 0 0 -3 50 -5 110 -5 61 0 110 3 110 6 0 3 23 3 50 -1 28 -4 50 -3 50
0 0 4 20 4 43 0 24 -3 52 -3 63 0 10 4 30 4 44 0 14 -4 39 -3 56 0 18 4 38 4
45 0 7 -5 18 -6 26 -3 7 3 19 3 27 0 12 -5 12 -13 -1 -54 -14 -44 -62 -215
-68 -238 -1 -5 -4 -17 -7 -25 -7 -18 -58 -196 -63 -219 -2 -9 -11 -38 -19 -66
-8 -27 -33 -114 -55 -192 -23 -79 -59 -207 -82 -285 -22 -79 -47 -165 -55
-193 -8 -27 -16 -57 -18 -65 -2 -8 -16 -55 -31 -105 -14 -49 -28 -101 -31
-114 -3 -14 -7 -28 -10 -33 -3 -4 -7 -16 -9 -25 -1 -10 -11 -44 -20 -76 -23
-79 -14 -126 35 -176 29 -30 49 -41 82 -46 24 -3 185 -5 358 -3 l315 3 57 28
c56 28 125 94 151 146 18 35 41 75 47 81 3 3 16 28 30 55 14 28 27 52 31 55 3
3 20 32 39 65 33 60 52 93 91 163 12 20 33 57 47 82 14 25 36 62 49 82 12 21
23 42 23 48 0 5 5 10 10 10 6 0 10 9 10 20 0 11 5 20 10 20 6 0 10 4 10 10 0
5 18 39 40 75 22 36 40 69 40 74 0 5 6 16 13 23 10 11 22 31 71 123 6 11 14
22 17 25 3 3 18 31 34 62 16 32 33 58 37 58 4 0 8 6 8 13 0 7 13 33 28 58 16
24 45 74 65 112 21 37 58 101 82 143 25 42 45 77 45 79 0 3 25 45 55 96 30 50
55 95 55 99 0 12 31 16 75 10 22 -3 75 -3 117 0 42 3 87 2 100 -1 13 -3 40 -2
60 1 20 4 42 4 48 0 6 -4 29 -4 51 0 22 4 41 4 44 0 2 -4 25 -4 50 0 25 4 45
4 45 1 0 -3 24 -5 52 -4 87 4 90 4 180 3 48 -1 92 1 97 4 5 4 12 3 15 -2 2 -4
32 -5 65 -2 34 3 61 2 61 -2 0 -4 6 -6 13 -3 6 2 64 6 127 9 333 16 704 209
848 440 20 33 37 62 38 65 0 3 5 24 12 45 20 69 9 165 -29 242 -111 225 -495
448 -826 479 -76 7 -171 7 -182 0 -5 -3 -12 -2 -15 3 -2 4 -32 5 -65 2 -34 -3
-61 -3 -61 0 0 5 -105 4 -268 -3 -34 -1 -62 0 -62 3 0 4 -27 4 -125 0 -11 -1
-38 -1 -60 -1 -22 0 -47 0 -55 0 -8 0 -66 0 -128 1 -62 1 -115 1 -117 -1 -2
-2 -25 -3 -52 -1 -47 4 -50 5 -73 50 -13 26 -31 58 -40 72 -10 14 -34 57 -55
95 -20 39 -44 77 -51 86 -8 8 -14 18 -14 22 0 3 -13 28 -29 55 -36 61 -78 135
-107 188 -19 36 -37 67 -81 139 -6 11 -27 48 -45 83 -18 35 -39 68 -45 74 -7
6 -13 14 -13 18 0 5 -22 46 -48 92 -26 46 -51 90 -55 98 -4 8 -16 29 -27 45
-11 17 -23 37 -27 45 -4 8 -28 51 -53 95 -26 44 -93 162 -151 263 -57 100
-114 199 -125 220 -38 66 -90 117 -150 147 l-59 30 -345 1 c-286 2 -350 -1
-373 -13z"/>
</g>
</svg>
